<svg width="292" height="293" viewBox="0 0 292 293" fill="none" xmlns="http://www.w3.org/2000/svg">
<path d="M211.768 18.9477L212.453 17.0689L211.768 18.9477ZM208.035 204.141L209.144 205.805L209.221 205.754L209.293 205.695L208.035 204.141ZM241.188 177.319L239.93 175.764L241.188 177.319ZM269.199 56.811L270.491 55.2848L269.199 56.811ZM252.272 42.4762L253.564 40.95L252.272 42.4762ZM1.35383 278.131C0.676082 279.003 0.833719 280.259 1.70592 280.937L15.9192 291.981C16.7915 292.659 18.0479 292.502 18.7257 291.629C19.4034 290.757 19.2458 289.501 18.3736 288.823L5.73951 279.006L15.5569 266.372C16.2346 265.499 16.077 264.243 15.2048 263.565C14.3326 262.887 13.0761 263.045 12.3983 263.917L1.35383 278.131ZM46.2519 273.923L46.5008 275.907L46.2519 273.923ZM175.569 225.782L174.459 224.118L175.569 225.782ZM263.05 156.069L261.532 154.767L263.05 156.069ZM272.833 144.656L274.351 145.958L272.833 144.656ZM283.516 127.597L285.35 128.395L285.35 128.395L283.516 127.597ZM284.931 124.346L286.765 125.144L284.931 124.346ZM212.453 17.0689L166.855 0.432267L165.484 4.18997L211.082 20.8266L212.453 17.0689ZM209.293 205.695L242.446 178.874L239.93 175.764L206.777 202.586L209.293 205.695ZM270.491 55.2848L253.564 40.95L250.979 44.0024L267.906 58.3373L270.491 55.2848ZM3.18205 281.342L46.5008 275.907L46.0029 271.939L2.68412 277.373L3.18205 281.342ZM176.678 227.446L209.144 205.805L206.925 202.476L174.459 224.118L176.678 227.446ZM264.569 157.371L274.351 145.958L271.314 143.355L261.532 154.767L264.569 157.371ZM285.35 128.395L286.765 125.144L283.097 123.548L281.683 126.799L285.35 128.395ZM274.351 145.958C278.872 140.684 282.579 134.765 285.35 128.395L281.683 126.799C279.07 132.803 275.576 138.383 271.314 143.355L274.351 145.958ZM96.9482 265.148C125.223 256.541 152.085 243.839 176.678 227.446L174.459 224.118C150.191 240.294 123.685 252.829 95.7834 261.321L96.9482 265.148ZM289.152 83.6552C285.787 72.6016 279.309 62.7518 270.491 55.2848L267.906 58.3373C276.137 65.3074 282.185 74.5019 285.325 84.8199L289.152 83.6552ZM242.446 178.874C250.458 172.392 257.862 165.195 264.569 157.371L261.532 154.767C254.983 162.407 247.753 169.435 239.93 175.764L242.446 178.874ZM285.325 84.8199C289.21 97.5837 288.42 111.314 283.097 123.548L286.765 125.144C292.467 112.038 293.314 97.3288 289.152 83.6552L285.325 84.8199ZM46.5008 275.907C63.5922 273.763 80.4693 270.164 96.9482 265.148L95.7834 261.321C79.5224 266.271 62.8684 269.823 46.0029 271.939L46.5008 275.907ZM211.082 20.8266C225.644 26.1393 239.151 33.9854 250.979 44.0024L253.564 40.95C241.376 30.6281 227.458 22.5432 212.453 17.0689L211.082 20.8266Z" fill="#111010"/>
</svg>
