<svg width="491" height="266" viewBox="0 0 491 266" fill="none" xmlns="http://www.w3.org/2000/svg">
<path d="M82.4947 36.1432L81.8007 34.2674L82.4947 36.1432ZM155.063 7.78624C156.066 8.24775 156.506 9.4354 156.044 10.4389L148.524 26.7926C148.062 27.7961 146.875 28.2355 145.871 27.774C144.867 27.3125 144.428 26.1249 144.89 25.1213L151.575 10.5848L137.038 3.89981C136.034 3.43832 135.595 2.25067 136.057 1.24713C136.518 0.243584 137.706 -0.195829 138.709 0.26568L155.063 7.78624ZM161.6 215.888L161.014 217.8L160.953 217.782L160.892 217.759L161.6 215.888ZM82.4095 185.933L81.7019 187.804L81.5751 187.756L81.4559 187.691L82.4095 185.933ZM18.3993 79.7497L19.6713 81.293L18.3993 79.7497ZM45.4901 57.4213L46.7621 58.9647L45.4901 57.4213ZM386.12 263.119L386.138 265.119L386.026 265.12L385.914 265.108L386.12 263.119ZM242.754 240.746L243.34 238.833L242.754 240.746ZM40.8831 163.407L41.8367 161.649L40.8831 163.407ZM26.1613 152.739L27.5349 151.286L26.1613 152.739ZM16.2434 143.368L14.8698 144.822L16.2434 143.368ZM81.8007 34.2674L153.533 7.72758L154.921 11.479L83.1887 38.0189L81.8007 34.2674ZM160.892 217.759L81.7019 187.804L83.1172 184.063L162.308 214.018L160.892 217.759ZM17.1272 78.2063L44.2181 55.878L46.7621 58.9647L19.6713 81.293L17.1272 78.2063ZM490.963 264.147L386.138 265.119L386.101 261.119L490.926 260.148L490.963 264.147ZM385.914 265.108L318.609 258.158L319.02 254.179L386.325 261.129L385.914 265.108ZM242.169 242.658L161.014 217.8L162.186 213.976L243.34 238.833L242.169 242.658ZM81.4559 187.691L39.9295 165.165L41.8367 161.649L83.3632 184.175L81.4559 187.691ZM24.7877 154.193L14.8698 144.822L17.617 141.914L27.5349 151.286L24.7877 154.193ZM39.9295 165.165C34.4274 162.18 29.3374 158.492 24.7877 154.193L27.5349 151.286C31.8322 155.346 36.6399 158.83 41.8367 161.649L39.9295 165.165ZM1.18185 107.944C2.38209 96.3211 8.11032 85.638 17.1272 78.2063L19.6713 81.293C11.4658 88.056 6.25293 97.7778 5.16069 108.355L1.18185 107.944ZM318.609 258.158C292.687 255.481 267.086 250.29 242.169 242.658L243.34 238.833C268.01 246.389 293.355 251.529 319.02 254.179L318.609 258.158ZM5.16069 108.355C3.86836 120.87 8.47229 133.273 17.617 141.914L14.8698 144.822C4.82089 135.326 -0.23827 121.696 1.18185 107.944L5.16069 108.355ZM83.1887 38.0189C69.96 42.9133 57.6467 49.9936 46.7621 58.9647L44.2181 55.878C55.4481 46.6222 68.1521 39.3171 81.8007 34.2674L83.1887 38.0189Z" fill="#111100"/>
</svg>
