<svg width="760" height="400" viewBox="0 0 760 400" fill="none" xmlns="http://www.w3.org/2000/svg">
<rect width="680" height="400" rx="35" fill="url(#paint0_radial_96_80)"/>
<rect y="107" width="680" height="72" fill="black"/>
<circle cx="519" cy="298" r="50" fill="black"/>
<circle cx="519" cy="298" r="50" fill="black"/>
<path d="M636 298C636 325.614 613.614 348 586 348C558.386 348 536 325.614 536 298C536 270.386 558.386 248 586 248C613.614 248 636 270.386 636 298Z" fill="black"/>
<path d="M636 298C636 325.614 613.614 348 586 348C558.386 348 536 325.614 536 298C536 270.386 558.386 248 586 248C613.614 248 636 270.386 636 298Z" fill="#BABAA5"/>
<path d="M38.128 164.64C35.696 164.64 33.648 164.235 31.984 163.424C30.3627 162.571 29.104 161.483 28.208 160.16C27.312 158.837 26.7573 157.408 26.544 155.872C26.5013 155.531 26.4587 155.189 26.416 154.848C26.416 154.464 26.416 154.101 26.416 153.76C26.416 152.779 26.48 151.819 26.608 150.88C26.7787 149.899 26.992 148.939 27.248 148C27.9733 145.44 29.1467 142.923 30.768 140.448C32.3893 137.931 34.3093 135.669 36.528 133.664C38.7893 131.659 41.2427 130.059 43.888 128.864C46.5333 127.669 49.2427 127.072 52.016 127.072C54.4907 127.072 56.5173 127.477 58.096 128.288C59.7173 129.099 60.976 130.187 61.872 131.552C62.768 132.875 63.3227 134.325 63.536 135.904C63.664 136.672 63.728 137.461 63.728 138.272C63.728 139.168 63.6427 140.085 63.472 141.024C63.344 141.92 63.152 142.816 62.896 143.712C62.1707 146.272 60.9973 148.789 59.376 151.264C57.7547 153.739 55.8133 156 53.552 158.048C51.3333 160.053 48.9013 161.653 46.256 162.848C43.6107 164.043 40.9013 164.64 38.128 164.64ZM38.832 163.232C41.6053 163.232 44.1227 162.549 46.384 161.184C48.6453 159.776 50.6293 158.005 52.336 155.872C54.0427 153.696 55.4507 151.499 56.56 149.28C57.328 147.744 57.9893 145.952 58.544 143.904C59.0987 141.813 59.376 139.787 59.376 137.824C59.376 137.355 59.3547 136.885 59.312 136.416C59.2693 135.904 59.2053 135.435 59.12 135.008C58.8213 133.259 58.1387 131.723 57.072 130.4C56.0053 129.077 54.2133 128.416 51.696 128.416C49.008 128.416 46.512 129.12 44.208 130.528C41.904 131.936 39.856 133.707 38.064 135.84C36.3147 137.973 34.8427 140.171 33.648 142.432C32.8373 143.925 32.1547 145.696 31.6 147.744C31.0453 149.749 30.768 151.755 30.768 153.76C30.768 154.229 30.7893 154.699 30.832 155.168C30.8747 155.637 30.9387 156.107 31.024 156.576C31.3653 158.325 32.1333 159.883 33.328 161.248C34.5227 162.571 36.3573 163.232 38.832 163.232ZM76.378 164.64C73.946 164.64 71.898 164.235 70.234 163.424C68.6127 162.571 67.354 161.483 66.458 160.16C65.562 158.837 65.0073 157.408 64.794 155.872C64.7513 155.531 64.7087 155.189 64.666 154.848C64.666 154.464 64.666 154.101 64.666 153.76C64.666 152.779 64.73 151.819 64.858 150.88C65.0287 149.899 65.242 148.939 65.498 148C66.2233 145.44 67.3967 142.923 69.018 140.448C70.6393 137.931 72.5593 135.669 74.778 133.664C77.0393 131.659 79.4927 130.059 82.138 128.864C84.7833 127.669 87.4927 127.072 90.266 127.072C92.7407 127.072 94.7673 127.477 96.346 128.288C97.9673 129.099 99.226 130.187 100.122 131.552C101.018 132.875 101.573 134.325 101.786 135.904C101.914 136.672 101.978 137.461 101.978 138.272C101.978 139.168 101.893 140.085 101.722 141.024C101.594 141.92 101.402 142.816 101.146 143.712C100.421 146.272 99.2473 148.789 97.626 151.264C96.0047 153.739 94.0633 156 91.802 158.048C89.5833 160.053 87.1513 161.653 84.506 162.848C81.8607 164.043 79.1513 164.64 76.378 164.64ZM77.082 163.232C79.8553 163.232 82.3727 162.549 84.634 161.184C86.8953 159.776 88.8793 158.005 90.586 155.872C92.2927 153.696 93.7007 151.499 94.81 149.28C95.578 147.744 96.2393 145.952 96.794 143.904C97.3487 141.813 97.626 139.787 97.626 137.824C97.626 137.355 97.6047 136.885 97.562 136.416C97.5193 135.904 97.4553 135.435 97.37 135.008C97.0713 133.259 96.3887 131.723 95.322 130.4C94.2553 129.077 92.4633 128.416 89.946 128.416C87.258 128.416 84.762 129.12 82.458 130.528C80.154 131.936 78.106 133.707 76.314 135.84C74.5647 137.973 73.0927 140.171 71.898 142.432C71.0873 143.925 70.4047 145.696 69.85 147.744C69.2953 149.749 69.018 151.755 69.018 153.76C69.018 154.229 69.0393 154.699 69.082 155.168C69.1247 155.637 69.1887 156.107 69.274 156.576C69.6153 158.325 70.3833 159.883 71.578 161.248C72.7727 162.571 74.6073 163.232 77.082 163.232ZM114.628 164.64C112.196 164.64 110.148 164.235 108.484 163.424C106.863 162.571 105.604 161.483 104.708 160.16C103.812 158.837 103.257 157.408 103.044 155.872C103.001 155.531 102.959 155.189 102.916 154.848C102.916 154.464 102.916 154.101 102.916 153.76C102.916 152.779 102.98 151.819 103.108 150.88C103.279 149.899 103.492 148.939 103.748 148C104.473 145.44 105.647 142.923 107.268 140.448C108.889 137.931 110.809 135.669 113.028 133.664C115.289 131.659 117.743 130.059 120.388 128.864C123.033 127.669 125.743 127.072 128.516 127.072C130.991 127.072 133.017 127.477 134.596 128.288C136.217 129.099 137.476 130.187 138.372 131.552C139.268 132.875 139.823 134.325 140.036 135.904C140.164 136.672 140.228 137.461 140.228 138.272C140.228 139.168 140.143 140.085 139.972 141.024C139.844 141.92 139.652 142.816 139.396 143.712C138.671 146.272 137.497 148.789 135.876 151.264C134.255 153.739 132.313 156 130.052 158.048C127.833 160.053 125.401 161.653 122.756 162.848C120.111 164.043 117.401 164.64 114.628 164.64ZM115.332 163.232C118.105 163.232 120.623 162.549 122.884 161.184C125.145 159.776 127.129 158.005 128.836 155.872C130.543 153.696 131.951 151.499 133.06 149.28C133.828 147.744 134.489 145.952 135.044 143.904C135.599 141.813 135.876 139.787 135.876 137.824C135.876 137.355 135.855 136.885 135.812 136.416C135.769 135.904 135.705 135.435 135.62 135.008C135.321 133.259 134.639 131.723 133.572 130.4C132.505 129.077 130.713 128.416 128.196 128.416C125.508 128.416 123.012 129.12 120.708 130.528C118.404 131.936 116.356 133.707 114.564 135.84C112.815 137.973 111.343 140.171 110.148 142.432C109.337 143.925 108.655 145.696 108.1 147.744C107.545 149.749 107.268 151.755 107.268 153.76C107.268 154.229 107.289 154.699 107.332 155.168C107.375 155.637 107.439 156.107 107.524 156.576C107.865 158.325 108.633 159.883 109.828 161.248C111.023 162.571 112.857 163.232 115.332 163.232ZM152.878 164.64C150.446 164.64 148.398 164.235 146.734 163.424C145.113 162.571 143.854 161.483 142.958 160.16C142.062 158.837 141.507 157.408 141.294 155.872C141.251 155.531 141.209 155.189 141.166 154.848C141.166 154.464 141.166 154.101 141.166 153.76C141.166 152.779 141.23 151.819 141.358 150.88C141.529 149.899 141.742 148.939 141.998 148C142.723 145.44 143.897 142.923 145.518 140.448C147.139 137.931 149.059 135.669 151.278 133.664C153.539 131.659 155.993 130.059 158.638 128.864C161.283 127.669 163.993 127.072 166.766 127.072C169.241 127.072 171.267 127.477 172.846 128.288C174.467 129.099 175.726 130.187 176.622 131.552C177.518 132.875 178.073 134.325 178.286 135.904C178.414 136.672 178.478 137.461 178.478 138.272C178.478 139.168 178.393 140.085 178.222 141.024C178.094 141.92 177.902 142.816 177.646 143.712C176.921 146.272 175.747 148.789 174.126 151.264C172.505 153.739 170.563 156 168.302 158.048C166.083 160.053 163.651 161.653 161.006 162.848C158.361 164.043 155.651 164.64 152.878 164.64ZM153.582 163.232C156.355 163.232 158.873 162.549 161.134 161.184C163.395 159.776 165.379 158.005 167.086 155.872C168.793 153.696 170.201 151.499 171.31 149.28C172.078 147.744 172.739 145.952 173.294 143.904C173.849 141.813 174.126 139.787 174.126 137.824C174.126 137.355 174.105 136.885 174.062 136.416C174.019 135.904 173.955 135.435 173.87 135.008C173.571 133.259 172.889 131.723 171.822 130.4C170.755 129.077 168.963 128.416 166.446 128.416C163.758 128.416 161.262 129.12 158.958 130.528C156.654 131.936 154.606 133.707 152.814 135.84C151.065 137.973 149.593 140.171 148.398 142.432C147.587 143.925 146.905 145.696 146.35 147.744C145.795 149.749 145.518 151.755 145.518 153.76C145.518 154.229 145.539 154.699 145.582 155.168C145.625 155.637 145.689 156.107 145.774 156.576C146.115 158.325 146.883 159.883 148.078 161.248C149.273 162.571 151.107 163.232 153.582 163.232ZM207.637 150.048C207.295 150.133 207.082 150.048 206.997 149.792L203.413 142.176L196.309 149.92C196.181 150.048 196.031 150.112 195.861 150.112C195.69 150.112 195.562 150.027 195.477 149.856C195.391 149.685 195.413 149.515 195.541 149.344L201.557 140.96L192.469 140.192C192.17 140.192 192.021 140.043 192.021 139.744C192.021 139.445 192.191 139.253 192.533 139.168L202.133 138.464L200.085 129.952C199.957 129.653 200.042 129.461 200.341 129.376C200.639 129.163 200.853 129.227 200.981 129.568L204.501 137.248L211.669 129.504C211.797 129.376 211.946 129.312 212.117 129.312C212.287 129.312 212.415 129.397 212.501 129.568C212.586 129.696 212.565 129.867 212.437 130.08L206.421 138.464L215.509 139.168C215.807 139.253 215.957 139.424 215.957 139.68C215.957 139.765 215.914 139.872 215.829 140C215.743 140.128 215.594 140.192 215.381 140.192L205.845 140.96L207.893 149.408C207.893 149.451 207.893 149.493 207.893 149.536C207.935 149.536 207.957 149.536 207.957 149.536C207.957 149.749 207.85 149.92 207.637 150.048ZM241.137 150.048C240.795 150.133 240.582 150.048 240.497 149.792L236.913 142.176L229.809 149.92C229.681 150.048 229.531 150.112 229.361 150.112C229.19 150.112 229.062 150.027 228.977 149.856C228.891 149.685 228.913 149.515 229.041 149.344L235.057 140.96L225.969 140.192C225.67 140.192 225.521 140.043 225.521 139.744C225.521 139.445 225.691 139.253 226.033 139.168L235.633 138.464L233.585 129.952C233.457 129.653 233.542 129.461 233.841 129.376C234.139 129.163 234.353 129.227 234.481 129.568L238.001 137.248L245.169 129.504C245.297 129.376 245.446 129.312 245.617 129.312C245.787 129.312 245.915 129.397 246.001 129.568C246.086 129.696 246.065 129.867 245.937 130.08L239.921 138.464L249.009 139.168C249.307 139.253 249.457 139.424 249.457 139.68C249.457 139.765 249.414 139.872 249.329 140C249.243 140.128 249.094 140.192 248.881 140.192L239.345 140.96L241.393 149.408C241.393 149.451 241.393 149.493 241.393 149.536C241.435 149.536 241.457 149.536 241.457 149.536C241.457 149.749 241.35 149.92 241.137 150.048ZM274.637 150.048C274.295 150.133 274.082 150.048 273.997 149.792L270.413 142.176L263.309 149.92C263.181 150.048 263.031 150.112 262.861 150.112C262.69 150.112 262.562 150.027 262.477 149.856C262.391 149.685 262.413 149.515 262.541 149.344L268.557 140.96L259.469 140.192C259.17 140.192 259.021 140.043 259.021 139.744C259.021 139.445 259.191 139.253 259.533 139.168L269.133 138.464L267.085 129.952C266.957 129.653 267.042 129.461 267.341 129.376C267.639 129.163 267.853 129.227 267.981 129.568L271.501 137.248L278.669 129.504C278.797 129.376 278.946 129.312 279.117 129.312C279.287 129.312 279.415 129.397 279.501 129.568C279.586 129.696 279.565 129.867 279.437 130.08L273.421 138.464L282.509 139.168C282.807 139.253 282.957 139.424 282.957 139.68C282.957 139.765 282.914 139.872 282.829 140C282.743 140.128 282.594 140.192 282.381 140.192L272.845 140.96L274.893 149.408C274.893 149.451 274.893 149.493 274.893 149.536C274.935 149.536 274.957 149.536 274.957 149.536C274.957 149.749 274.85 149.92 274.637 150.048ZM308.137 150.048C307.795 150.133 307.582 150.048 307.497 149.792L303.913 142.176L296.809 149.92C296.681 150.048 296.531 150.112 296.361 150.112C296.19 150.112 296.062 150.027 295.977 149.856C295.891 149.685 295.913 149.515 296.041 149.344L302.057 140.96L292.969 140.192C292.67 140.192 292.521 140.043 292.521 139.744C292.521 139.445 292.691 139.253 293.033 139.168L302.633 138.464L300.585 129.952C300.457 129.653 300.542 129.461 300.841 129.376C301.139 129.163 301.353 129.227 301.481 129.568L305.001 137.248L312.169 129.504C312.297 129.376 312.446 129.312 312.617 129.312C312.787 129.312 312.915 129.397 313.001 129.568C313.086 129.696 313.065 129.867 312.937 130.08L306.921 138.464L316.009 139.168C316.307 139.253 316.457 139.424 316.457 139.68C316.457 139.765 316.414 139.872 316.329 140C316.243 140.128 316.094 140.192 315.881 140.192L306.345 140.96L308.393 149.408C308.393 149.451 308.393 149.493 308.393 149.536C308.435 149.536 308.457 149.536 308.457 149.536C308.457 149.749 308.35 149.92 308.137 150.048ZM352.449 150.048C352.108 150.133 351.894 150.048 351.809 149.792L348.225 142.176L341.121 149.92C340.993 150.048 340.844 150.112 340.673 150.112C340.502 150.112 340.374 150.027 340.289 149.856C340.204 149.685 340.225 149.515 340.353 149.344L346.369 140.96L337.281 140.192C336.982 140.192 336.833 140.043 336.833 139.744C336.833 139.445 337.004 139.253 337.345 139.168L346.945 138.464L344.897 129.952C344.769 129.653 344.854 129.461 345.153 129.376C345.452 129.163 345.665 129.227 345.793 129.568L349.313 137.248L356.481 129.504C356.609 129.376 356.758 129.312 356.929 129.312C357.1 129.312 357.228 129.397 357.313 129.568C357.398 129.696 357.377 129.867 357.249 130.08L351.233 138.464L360.321 139.168C360.62 139.253 360.769 139.424 360.769 139.68C360.769 139.765 360.726 139.872 360.641 140C360.556 140.128 360.406 140.192 360.193 140.192L350.657 140.96L352.705 149.408C352.705 149.451 352.705 149.493 352.705 149.536C352.748 149.536 352.769 149.536 352.769 149.536C352.769 149.749 352.662 149.92 352.449 150.048ZM385.949 150.048C385.608 150.133 385.394 150.048 385.309 149.792L381.725 142.176L374.621 149.92C374.493 150.048 374.344 150.112 374.173 150.112C374.002 150.112 373.874 150.027 373.789 149.856C373.704 149.685 373.725 149.515 373.853 149.344L379.869 140.96L370.781 140.192C370.482 140.192 370.333 140.043 370.333 139.744C370.333 139.445 370.504 139.253 370.845 139.168L380.445 138.464L378.397 129.952C378.269 129.653 378.354 129.461 378.653 129.376C378.952 129.163 379.165 129.227 379.293 129.568L382.813 137.248L389.981 129.504C390.109 129.376 390.258 129.312 390.429 129.312C390.6 129.312 390.728 129.397 390.813 129.568C390.898 129.696 390.877 129.867 390.749 130.08L384.733 138.464L393.821 139.168C394.12 139.253 394.269 139.424 394.269 139.68C394.269 139.765 394.226 139.872 394.141 140C394.056 140.128 393.906 140.192 393.693 140.192L384.157 140.96L386.205 149.408C386.205 149.451 386.205 149.493 386.205 149.536C386.248 149.536 386.269 149.536 386.269 149.536C386.269 149.749 386.162 149.92 385.949 150.048ZM419.449 150.048C419.108 150.133 418.894 150.048 418.809 149.792L415.225 142.176L408.121 149.92C407.993 150.048 407.844 150.112 407.673 150.112C407.502 150.112 407.374 150.027 407.289 149.856C407.204 149.685 407.225 149.515 407.353 149.344L413.369 140.96L404.281 140.192C403.982 140.192 403.833 140.043 403.833 139.744C403.833 139.445 404.004 139.253 404.345 139.168L413.945 138.464L411.897 129.952C411.769 129.653 411.854 129.461 412.153 129.376C412.452 129.163 412.665 129.227 412.793 129.568L416.313 137.248L423.481 129.504C423.609 129.376 423.758 129.312 423.929 129.312C424.1 129.312 424.228 129.397 424.313 129.568C424.398 129.696 424.377 129.867 424.249 130.08L418.233 138.464L427.321 139.168C427.62 139.253 427.769 139.424 427.769 139.68C427.769 139.765 427.726 139.872 427.641 140C427.556 140.128 427.406 140.192 427.193 140.192L417.657 140.96L419.705 149.408C419.705 149.451 419.705 149.493 419.705 149.536C419.748 149.536 419.769 149.536 419.769 149.536C419.769 149.749 419.662 149.92 419.449 150.048ZM452.949 150.048C452.608 150.133 452.394 150.048 452.309 149.792L448.725 142.176L441.621 149.92C441.493 150.048 441.344 150.112 441.173 150.112C441.002 150.112 440.874 150.027 440.789 149.856C440.704 149.685 440.725 149.515 440.853 149.344L446.869 140.96L437.781 140.192C437.482 140.192 437.333 140.043 437.333 139.744C437.333 139.445 437.504 139.253 437.845 139.168L447.445 138.464L445.397 129.952C445.269 129.653 445.354 129.461 445.653 129.376C445.952 129.163 446.165 129.227 446.293 129.568L449.813 137.248L456.981 129.504C457.109 129.376 457.258 129.312 457.429 129.312C457.6 129.312 457.728 129.397 457.813 129.568C457.898 129.696 457.877 129.867 457.749 130.08L451.733 138.464L460.821 139.168C461.12 139.253 461.269 139.424 461.269 139.68C461.269 139.765 461.226 139.872 461.141 140C461.056 140.128 460.906 140.192 460.693 140.192L451.157 140.96L453.205 149.408C453.205 149.451 453.205 149.493 453.205 149.536C453.248 149.536 453.269 149.536 453.269 149.536C453.269 149.749 453.162 149.92 452.949 150.048ZM491.566 164.64C489.134 164.64 487.086 164.235 485.422 163.424C483.8 162.571 482.542 161.483 481.646 160.16C480.75 158.837 480.195 157.408 479.982 155.872C479.939 155.531 479.896 155.189 479.854 154.848C479.854 154.464 479.854 154.101 479.854 153.76C479.854 152.779 479.918 151.819 480.046 150.88C480.216 149.899 480.43 148.939 480.686 148C481.411 145.44 482.584 142.923 484.206 140.448C485.827 137.931 487.747 135.669 489.966 133.664C492.227 131.659 494.68 130.059 497.326 128.864C499.971 127.669 502.68 127.072 505.454 127.072C507.928 127.072 509.955 127.477 511.534 128.288C513.155 129.099 514.414 130.187 515.31 131.552C516.206 132.875 516.76 134.325 516.974 135.904C517.102 136.672 517.166 137.461 517.166 138.272C517.166 139.168 517.08 140.085 516.91 141.024C516.782 141.92 516.59 142.816 516.334 143.712C515.608 146.272 514.435 148.789 512.814 151.264C511.192 153.739 509.251 156 506.99 158.048C504.771 160.053 502.339 161.653 499.694 162.848C497.048 164.043 494.339 164.64 491.566 164.64ZM492.27 163.232C495.043 163.232 497.56 162.549 499.822 161.184C502.083 159.776 504.067 158.005 505.774 155.872C507.48 153.696 508.888 151.499 509.998 149.28C510.766 147.744 511.427 145.952 511.982 143.904C512.536 141.813 512.814 139.787 512.814 137.824C512.814 137.355 512.792 136.885 512.75 136.416C512.707 135.904 512.643 135.435 512.558 135.008C512.259 133.259 511.576 131.723 510.51 130.4C509.443 129.077 507.651 128.416 505.134 128.416C502.446 128.416 499.95 129.12 497.646 130.528C495.342 131.936 493.294 133.707 491.502 135.84C489.752 137.973 488.28 140.171 487.086 142.432C486.275 143.925 485.592 145.696 485.038 147.744C484.483 149.749 484.206 151.755 484.206 153.76C484.206 154.229 484.227 154.699 484.27 155.168C484.312 155.637 484.376 156.107 484.462 156.576C484.803 158.325 485.571 159.883 486.766 161.248C487.96 162.571 489.795 163.232 492.27 163.232ZM529.816 164.64C527.384 164.64 525.336 164.235 523.672 163.424C522.05 162.571 520.792 161.483 519.896 160.16C519 158.837 518.445 157.408 518.232 155.872C518.189 155.531 518.146 155.189 518.104 154.848C518.104 154.464 518.104 154.101 518.104 153.76C518.104 152.779 518.168 151.819 518.296 150.88C518.466 149.899 518.68 148.939 518.936 148C519.661 145.44 520.834 142.923 522.456 140.448C524.077 137.931 525.997 135.669 528.216 133.664C530.477 131.659 532.93 130.059 535.576 128.864C538.221 127.669 540.93 127.072 543.704 127.072C546.178 127.072 548.205 127.477 549.784 128.288C551.405 129.099 552.664 130.187 553.56 131.552C554.456 132.875 555.01 134.325 555.224 135.904C555.352 136.672 555.416 137.461 555.416 138.272C555.416 139.168 555.33 140.085 555.16 141.024C555.032 141.92 554.84 142.816 554.584 143.712C553.858 146.272 552.685 148.789 551.064 151.264C549.442 153.739 547.501 156 545.24 158.048C543.021 160.053 540.589 161.653 537.944 162.848C535.298 164.043 532.589 164.64 529.816 164.64ZM530.52 163.232C533.293 163.232 535.81 162.549 538.072 161.184C540.333 159.776 542.317 158.005 544.024 155.872C545.73 153.696 547.138 151.499 548.248 149.28C549.016 147.744 549.677 145.952 550.232 143.904C550.786 141.813 551.064 139.787 551.064 137.824C551.064 137.355 551.042 136.885 551 136.416C550.957 135.904 550.893 135.435 550.808 135.008C550.509 133.259 549.826 131.723 548.76 130.4C547.693 129.077 545.901 128.416 543.384 128.416C540.696 128.416 538.2 129.12 535.896 130.528C533.592 131.936 531.544 133.707 529.752 135.84C528.002 137.973 526.53 140.171 525.336 142.432C524.525 143.925 523.842 145.696 523.288 147.744C522.733 149.749 522.456 151.755 522.456 153.76C522.456 154.229 522.477 154.699 522.52 155.168C522.562 155.637 522.626 156.107 522.712 156.576C523.053 158.325 523.821 159.883 525.016 161.248C526.21 162.571 528.045 163.232 530.52 163.232ZM568.066 164.64C565.634 164.64 563.586 164.235 561.922 163.424C560.3 162.571 559.042 161.483 558.146 160.16C557.25 158.837 556.695 157.408 556.482 155.872C556.439 155.531 556.396 155.189 556.354 154.848C556.354 154.464 556.354 154.101 556.354 153.76C556.354 152.779 556.418 151.819 556.546 150.88C556.716 149.899 556.93 148.939 557.186 148C557.911 145.44 559.084 142.923 560.706 140.448C562.327 137.931 564.247 135.669 566.466 133.664C568.727 131.659 571.18 130.059 573.826 128.864C576.471 127.669 579.18 127.072 581.954 127.072C584.428 127.072 586.455 127.477 588.034 128.288C589.655 129.099 590.914 130.187 591.81 131.552C592.706 132.875 593.26 134.325 593.474 135.904C593.602 136.672 593.666 137.461 593.666 138.272C593.666 139.168 593.58 140.085 593.41 141.024C593.282 141.92 593.09 142.816 592.834 143.712C592.108 146.272 590.935 148.789 589.314 151.264C587.692 153.739 585.751 156 583.49 158.048C581.271 160.053 578.839 161.653 576.194 162.848C573.548 164.043 570.839 164.64 568.066 164.64ZM568.77 163.232C571.543 163.232 574.06 162.549 576.322 161.184C578.583 159.776 580.567 158.005 582.274 155.872C583.98 153.696 585.388 151.499 586.498 149.28C587.266 147.744 587.927 145.952 588.482 143.904C589.036 141.813 589.314 139.787 589.314 137.824C589.314 137.355 589.292 136.885 589.25 136.416C589.207 135.904 589.143 135.435 589.058 135.008C588.759 133.259 588.076 131.723 587.01 130.4C585.943 129.077 584.151 128.416 581.634 128.416C578.946 128.416 576.45 129.12 574.146 130.528C571.842 131.936 569.794 133.707 568.002 135.84C566.252 137.973 564.78 140.171 563.586 142.432C562.775 143.925 562.092 145.696 561.538 147.744C560.983 149.749 560.706 151.755 560.706 153.76C560.706 154.229 560.727 154.699 560.77 155.168C560.812 155.637 560.876 156.107 560.962 156.576C561.303 158.325 562.071 159.883 563.266 161.248C564.46 162.571 566.295 163.232 568.77 163.232ZM606.316 164.64C603.884 164.64 601.836 164.235 600.172 163.424C598.55 162.571 597.292 161.483 596.396 160.16C595.5 158.837 594.945 157.408 594.732 155.872C594.689 155.531 594.646 155.189 594.604 154.848C594.604 154.464 594.604 154.101 594.604 153.76C594.604 152.779 594.668 151.819 594.796 150.88C594.966 149.899 595.18 148.939 595.436 148C596.161 145.44 597.334 142.923 598.956 140.448C600.577 137.931 602.497 135.669 604.716 133.664C606.977 131.659 609.43 130.059 612.076 128.864C614.721 127.669 617.43 127.072 620.204 127.072C622.678 127.072 624.705 127.477 626.284 128.288C627.905 129.099 629.164 130.187 630.06 131.552C630.956 132.875 631.51 134.325 631.724 135.904C631.852 136.672 631.916 137.461 631.916 138.272C631.916 139.168 631.83 140.085 631.66 141.024C631.532 141.92 631.34 142.816 631.084 143.712C630.358 146.272 629.185 148.789 627.564 151.264C625.942 153.739 624.001 156 621.74 158.048C619.521 160.053 617.089 161.653 614.444 162.848C611.798 164.043 609.089 164.64 606.316 164.64ZM607.02 163.232C609.793 163.232 612.31 162.549 614.572 161.184C616.833 159.776 618.817 158.005 620.524 155.872C622.23 153.696 623.638 151.499 624.748 149.28C625.516 147.744 626.177 145.952 626.732 143.904C627.286 141.813 627.564 139.787 627.564 137.824C627.564 137.355 627.542 136.885 627.5 136.416C627.457 135.904 627.393 135.435 627.308 135.008C627.009 133.259 626.326 131.723 625.26 130.4C624.193 129.077 622.401 128.416 619.884 128.416C617.196 128.416 614.7 129.12 612.396 130.528C610.092 131.936 608.044 133.707 606.252 135.84C604.502 137.973 603.03 140.171 601.836 142.432C601.025 143.925 600.342 145.696 599.788 147.744C599.233 149.749 598.956 151.755 598.956 153.76C598.956 154.229 598.977 154.699 599.02 155.168C599.062 155.637 599.126 156.107 599.212 156.576C599.553 158.325 600.321 159.883 601.516 161.248C602.71 162.571 604.545 163.232 607.02 163.232Z" fill="white"/>
<path d="M489.972 374.344C489.972 374.8 489.804 375.196 489.468 375.532C489.156 375.844 488.772 376 488.316 376H487.308C486.852 376 486.456 375.844 486.12 375.532C485.808 375.196 485.652 374.8 485.652 374.344V362.14C485.652 361.804 485.496 361.636 485.184 361.636H483.78C483.492 361.636 483.348 361.804 483.348 362.14V374.344C483.348 374.8 483.18 375.196 482.844 375.532C482.532 375.844 482.148 376 481.692 376H480.72C480.264 376 479.868 375.844 479.532 375.532C479.22 375.196 479.064 374.8 479.064 374.344V362.14C479.064 361.804 478.92 361.636 478.632 361.636H477.228C476.916 361.636 476.76 361.804 476.76 362.14V374.344C476.76 374.8 476.592 375.196 476.256 375.532C475.944 375.844 475.56 376 475.104 376H474.096C473.64 376 473.244 375.844 472.908 375.532C472.596 375.196 472.44 374.8 472.44 374.344V361.384C472.44 360.64 472.62 359.968 472.98 359.368C473.364 358.744 473.856 358.252 474.456 357.892C475.056 357.532 475.728 357.352 476.472 357.352H479.316C479.844 357.352 480.324 357.46 480.756 357.676C481.044 357.748 481.344 357.748 481.656 357.676C482.088 357.46 482.568 357.352 483.096 357.352H485.94C486.684 357.352 487.356 357.532 487.956 357.892C488.556 358.252 489.036 358.744 489.396 359.368C489.78 359.968 489.972 360.64 489.972 361.384V374.344ZM505.898 371.968C505.898 373.096 505.502 374.056 504.71 374.848C503.942 375.616 503.006 376 501.902 376H496.898C495.794 376 494.846 375.616 494.054 374.848C493.262 374.056 492.866 373.096 492.866 371.968V368.044C492.866 367.3 493.046 366.64 493.406 366.064C493.79 365.464 494.282 364.984 494.882 364.624C495.482 364.264 496.154 364.084 496.898 364.084H501.146C501.266 364.084 501.374 364.036 501.47 363.94C501.59 363.844 501.65 363.724 501.65 363.58V362.14C501.65 361.996 501.59 361.876 501.47 361.78C501.374 361.684 501.266 361.636 501.146 361.636H496.898C496.442 361.636 496.046 361.48 495.71 361.168C495.398 360.856 495.242 360.472 495.242 360.016V359.044C495.242 358.564 495.398 358.168 495.71 357.856C496.046 357.52 496.442 357.352 496.898 357.352H501.902C502.646 357.352 503.318 357.532 503.918 357.892C504.518 358.252 504.998 358.744 505.358 359.368C505.718 359.968 505.898 360.64 505.898 361.384V371.968ZM501.65 371.284V368.8C501.65 368.68 501.59 368.572 501.47 368.476C501.374 368.38 501.266 368.332 501.146 368.332H497.654C497.534 368.332 497.414 368.38 497.294 368.476C497.198 368.572 497.15 368.68 497.15 368.8V371.284C497.15 371.404 497.198 371.512 497.294 371.608C497.414 371.704 497.534 371.752 497.654 371.752H501.146C501.266 371.752 501.374 371.704 501.47 371.608C501.59 371.512 501.65 371.404 501.65 371.284ZM521.859 371.968C521.859 373.096 521.463 374.056 520.671 374.848C519.903 375.616 518.967 376 517.863 376H512.859C511.755 376 510.807 375.616 510.015 374.848C509.223 374.056 508.827 373.096 508.827 371.968V370.492C508.827 370.036 508.983 369.652 509.295 369.34C509.631 369.004 510.027 368.836 510.483 368.836H511.491C511.947 368.836 512.331 369.004 512.643 369.34C512.955 369.652 513.111 370.036 513.111 370.492V371.284C513.111 371.596 513.279 371.752 513.615 371.752H517.107C517.227 371.752 517.335 371.704 517.431 371.608C517.551 371.512 517.611 371.404 517.611 371.284V369.952C517.611 369.76 517.515 369.628 517.323 369.556L512.103 367.9C511.143 367.564 510.351 366.988 509.727 366.172C509.127 365.356 508.827 364.432 508.827 363.4V361.384C508.827 360.64 509.007 359.968 509.367 359.368C509.751 358.768 510.243 358.288 510.843 357.928C511.443 357.544 512.115 357.352 512.859 357.352H517.863C518.607 357.352 519.279 357.544 519.879 357.928C520.479 358.288 520.959 358.768 521.319 359.368C521.679 359.968 521.859 360.64 521.859 361.384V362.824C521.859 363.28 521.703 363.676 521.391 364.012C521.079 364.324 520.695 364.48 520.239 364.48H519.231C518.775 364.48 518.391 364.324 518.079 364.012C517.767 363.676 517.611 363.28 517.611 362.824V362.14C517.611 361.996 517.551 361.876 517.431 361.78C517.335 361.684 517.227 361.636 517.107 361.636H513.615C513.279 361.636 513.111 361.804 513.111 362.14V363.4C513.111 363.64 513.207 363.784 513.399 363.832L518.619 365.488C519.603 365.8 520.383 366.364 520.959 367.18C521.559 367.996 521.859 368.92 521.859 369.952V371.968ZM535.48 374.344C535.48 374.8 535.324 375.196 535.012 375.532C534.7 375.844 534.316 376 533.86 376H528.82C527.716 376 526.768 375.616 525.976 374.848C525.208 374.056 524.824 373.096 524.824 371.968V353.32C524.824 352.84 524.98 352.444 525.292 352.132C525.604 351.82 525.988 351.664 526.444 351.664H527.452C527.908 351.664 528.292 351.82 528.604 352.132C528.94 352.444 529.108 352.84 529.108 353.32V356.92C529.108 357.208 529.264 357.352 529.576 357.352H533.86C534.316 357.352 534.7 357.52 535.012 357.856C535.324 358.168 535.48 358.564 535.48 359.044V360.016C535.48 360.424 535.324 360.808 535.012 361.168C534.652 361.48 534.268 361.636 533.86 361.636H529.576C529.264 361.636 529.108 361.804 529.108 362.14V371.284C529.108 371.596 529.264 371.752 529.576 371.752H533.86C534.316 371.752 534.7 371.908 535.012 372.22C535.324 372.532 535.48 372.928 535.48 373.408V374.344ZM551.425 365.308C551.425 366.028 551.245 366.7 550.885 367.324C550.525 367.924 550.045 368.416 549.445 368.8C548.845 369.16 548.173 369.34 547.429 369.34H543.181C543.061 369.34 542.941 369.388 542.821 369.484C542.725 369.556 542.677 369.652 542.677 369.772V371.284C542.677 371.404 542.725 371.512 542.821 371.608C542.941 371.704 543.061 371.752 543.181 371.752H547.429C547.885 371.752 548.269 371.908 548.581 372.22C548.917 372.532 549.085 372.928 549.085 373.408V374.344C549.085 374.8 548.917 375.196 548.581 375.532C548.269 375.844 547.885 376 547.429 376H542.425C541.321 376 540.373 375.616 539.581 374.848C538.789 374.056 538.393 373.096 538.393 371.968V361.384C538.393 360.64 538.573 359.968 538.933 359.368C539.317 358.768 539.809 358.288 540.409 357.928C541.009 357.544 541.681 357.352 542.425 357.352H547.429C548.173 357.352 548.845 357.544 549.445 357.928C550.045 358.288 550.525 358.768 550.885 359.368C551.245 359.968 551.425 360.64 551.425 361.384V365.308ZM547.177 364.588V362.14C547.177 361.996 547.117 361.876 546.997 361.78C546.901 361.684 546.793 361.636 546.673 361.636H543.181C543.061 361.636 542.941 361.684 542.821 361.78C542.725 361.876 542.677 361.996 542.677 362.14V364.588C542.677 364.684 542.725 364.78 542.821 364.876C542.941 364.972 543.061 365.02 543.181 365.02H546.673C546.793 365.02 546.901 364.972 546.997 364.876C547.117 364.78 547.177 364.684 547.177 364.588ZM565.046 360.016C565.046 360.472 564.89 360.856 564.578 361.168C564.266 361.48 563.882 361.636 563.426 361.636H559.142C558.83 361.636 558.674 361.804 558.674 362.14V374.344C558.674 374.8 558.506 375.196 558.17 375.532C557.858 375.844 557.474 376 557.018 376H556.01C555.554 376 555.17 375.844 554.858 375.532C554.546 375.196 554.39 374.8 554.39 374.344V361.384C554.39 360.64 554.57 359.968 554.93 359.368C555.29 358.744 555.77 358.252 556.37 357.892C556.97 357.532 557.642 357.352 558.386 357.352H563.426C563.882 357.352 564.266 357.52 564.578 357.856C564.89 358.168 565.046 358.564 565.046 359.044V360.016ZM580.992 371.968C580.992 373.096 580.596 374.056 579.804 374.848C579.036 375.616 578.1 376 576.996 376H571.992C570.888 376 569.94 375.616 569.148 374.848C568.356 374.056 567.96 373.096 567.96 371.968V361.384C567.96 360.64 568.14 359.968 568.5 359.368C568.884 358.744 569.376 358.252 569.976 357.892C570.576 357.532 571.248 357.352 571.992 357.352H576.996C577.74 357.352 578.412 357.532 579.012 357.892C579.612 358.252 580.092 358.744 580.452 359.368C580.812 359.968 580.992 360.64 580.992 361.384V363.256C580.992 363.712 580.836 364.108 580.524 364.444C580.212 364.756 579.828 364.912 579.372 364.912H578.364C577.908 364.912 577.524 364.756 577.212 364.444C576.9 364.108 576.744 363.712 576.744 363.256V362.14C576.744 361.996 576.684 361.876 576.564 361.78C576.468 361.684 576.36 361.636 576.24 361.636H572.748C572.628 361.636 572.508 361.684 572.388 361.78C572.292 361.876 572.244 361.996 572.244 362.14V371.284C572.244 371.404 572.292 371.512 572.388 371.608C572.508 371.704 572.628 371.752 572.748 371.752H576.24C576.36 371.752 576.468 371.704 576.564 371.608C576.684 371.512 576.744 371.404 576.744 371.284V370.168C576.744 369.712 576.9 369.328 577.212 369.016C577.524 368.68 577.908 368.512 578.364 368.512H579.372C579.828 368.512 580.212 368.68 580.524 369.016C580.836 369.328 580.992 369.712 580.992 370.168V371.968ZM596.952 371.968C596.952 373.096 596.556 374.056 595.764 374.848C594.996 375.616 594.06 376 592.956 376H587.952C586.848 376 585.9 375.616 585.108 374.848C584.316 374.056 583.92 373.096 583.92 371.968V368.044C583.92 367.3 584.1 366.64 584.46 366.064C584.844 365.464 585.336 364.984 585.936 364.624C586.536 364.264 587.208 364.084 587.952 364.084H592.2C592.32 364.084 592.428 364.036 592.524 363.94C592.644 363.844 592.704 363.724 592.704 363.58V362.14C592.704 361.996 592.644 361.876 592.524 361.78C592.428 361.684 592.32 361.636 592.2 361.636H587.952C587.496 361.636 587.1 361.48 586.764 361.168C586.452 360.856 586.296 360.472 586.296 360.016V359.044C586.296 358.564 586.452 358.168 586.764 357.856C587.1 357.52 587.496 357.352 587.952 357.352H592.956C593.7 357.352 594.372 357.532 594.972 357.892C595.572 358.252 596.052 358.744 596.412 359.368C596.772 359.968 596.952 360.64 596.952 361.384V371.968ZM592.704 371.284V368.8C592.704 368.68 592.644 368.572 592.524 368.476C592.428 368.38 592.32 368.332 592.2 368.332H588.708C588.588 368.332 588.468 368.38 588.348 368.476C588.252 368.572 588.204 368.68 588.204 368.8V371.284C588.204 371.404 588.252 371.512 588.348 371.608C588.468 371.704 588.588 371.752 588.708 371.752H592.2C592.32 371.752 592.428 371.704 592.524 371.608C592.644 371.512 592.704 371.404 592.704 371.284ZM610.573 360.016C610.573 360.472 610.417 360.856 610.105 361.168C609.793 361.48 609.409 361.636 608.953 361.636H604.669C604.357 361.636 604.201 361.804 604.201 362.14V374.344C604.201 374.8 604.033 375.196 603.697 375.532C603.385 375.844 603.001 376 602.545 376H601.537C601.081 376 600.697 375.844 600.385 375.532C600.073 375.196 599.917 374.8 599.917 374.344V361.384C599.917 360.64 600.097 359.968 600.457 359.368C600.817 358.744 601.297 358.252 601.897 357.892C602.497 357.532 603.169 357.352 603.913 357.352H608.953C609.409 357.352 609.793 357.52 610.105 357.856C610.417 358.168 610.573 358.564 610.573 359.044V360.016ZM626.519 371.968C626.519 373.096 626.123 374.056 625.331 374.848C624.563 375.616 623.627 376 622.523 376H617.519C616.415 376 615.467 375.616 614.675 374.848C613.883 374.056 613.487 373.096 613.487 371.968V361.384C613.487 360.64 613.667 359.968 614.027 359.368C614.411 358.744 614.903 358.252 615.503 357.892C616.103 357.532 616.775 357.352 617.519 357.352H621.767C622.103 357.352 622.271 357.208 622.271 356.92V353.32C622.271 352.84 622.427 352.444 622.739 352.132C623.051 351.82 623.435 351.664 623.891 351.664H624.899C625.355 351.664 625.739 351.82 626.051 352.132C626.363 352.444 626.519 352.84 626.519 353.32V371.968ZM622.271 371.284V362.14C622.271 361.804 622.103 361.636 621.767 361.636H618.275C618.155 361.636 618.035 361.684 617.915 361.78C617.819 361.876 617.771 361.996 617.771 362.14V371.284C617.771 371.404 617.819 371.512 617.915 371.608C618.035 371.704 618.155 371.752 618.275 371.752H621.767C622.103 371.752 622.271 371.596 622.271 371.284ZM634.848 373.3C634.848 374.044 634.572 374.68 634.02 375.208C633.492 375.736 632.856 376 632.112 376C631.392 376 630.756 375.736 630.204 375.208C629.676 374.68 629.412 374.044 629.412 373.3C629.412 372.556 629.676 371.92 630.204 371.392C630.756 370.864 631.392 370.6 632.112 370.6C632.856 370.6 633.492 370.864 634.02 371.392C634.572 371.92 634.848 372.556 634.848 373.3Z" fill="white"/>
<defs>
<radialGradient id="paint0_radial_96_80" cx="0" cy="0" r="1" gradientUnits="userSpaceOnUse" gradientTransform="translate(340 200) rotate(90) scale(200 340)">
<stop stop-color="#D94426"/>
<stop offset="1" stop-color="#D94426"/>
</radialGradient>
</defs>
</svg>
