<svg width="206" height="257" viewBox="0 0 206 257" fill="none" xmlns="http://www.w3.org/2000/svg">
<path d="M165.57 27.1083L163.962 28.2976L163.962 28.2976L165.57 27.1083ZM147.296 0.0220405C146.204 -0.141492 145.186 0.611501 145.022 1.7039L142.357 19.5055C142.194 20.5979 142.947 21.6161 144.039 21.7796C145.131 21.9431 146.15 21.1901 146.313 20.0977L148.682 4.27406L164.506 6.64287C165.598 6.80641 166.616 6.05341 166.78 4.96102C166.943 3.86862 166.19 2.85049 165.098 2.68696L147.296 0.0220405ZM135.5 228.5L136.451 230.259L136.569 230.196L136.676 230.117L135.5 228.5ZM156.977 212.88L158.153 214.498L158.153 214.498L156.977 212.88ZM197.241 91.0641L199.123 90.3884L199.123 90.3884L197.241 91.0641ZM192.12 76.7979L190.237 77.4736L190.237 77.4736L192.12 76.7979ZM28.136 250.244L27.5446 252.155L27.5446 252.155L28.136 250.244ZM110.176 242.196L109.225 240.436L109.225 240.436L110.176 242.196ZM177.882 193.777L176.377 192.46L176.377 192.46L177.882 193.777ZM181.304 189.867L182.809 191.184L182.809 191.184L181.304 189.867ZM194.836 169.255L193.03 168.398L193.03 168.398L194.836 169.255ZM167.178 25.9191L148.608 0.810747L145.392 3.18925L163.962 28.2976L167.178 25.9191ZM136.676 230.117L158.153 214.498L155.801 211.263L134.324 226.883L136.676 230.117ZM205.5 130.793V127.025H201.5V130.793H205.5ZM199.123 90.3884L194.002 76.1222L190.237 77.4736L195.359 91.7398L199.123 90.3884ZM0.908633 243.911L27.5446 252.155L28.7274 248.334L2.09137 240.089L0.908633 243.911ZM111.128 243.955L136.451 230.259L134.549 226.741L109.225 240.436L111.128 243.955ZM179.388 195.094L182.809 191.184L179.799 188.55L176.377 192.46L179.388 195.094ZM182.809 191.184C188.368 184.831 193.024 177.74 196.643 170.113L193.03 168.398C189.568 175.692 185.116 182.474 179.799 188.55L182.809 191.184ZM59.5831 257C77.5814 257 95.2962 252.517 111.128 243.955L109.225 240.436C93.9778 248.682 76.917 253 59.5831 253V257ZM205.5 127.025C205.5 114.537 203.343 102.142 199.123 90.3884L195.359 91.7398C199.422 103.06 201.5 114.998 201.5 127.025H205.5ZM158.153 214.498C165.932 208.841 173.054 202.333 179.388 195.094L176.377 192.46C170.24 199.474 163.338 205.781 155.801 211.263L158.153 214.498ZM201.5 130.793C201.5 143.801 198.607 156.646 193.03 168.398L196.643 170.113C202.475 157.825 205.5 144.394 205.5 130.793H201.5ZM27.5446 252.155C37.9209 255.367 48.7212 257 59.5831 257V253C49.1221 253 38.7206 251.427 28.7274 248.334L27.5446 252.155ZM163.962 28.2976C175.072 43.3201 183.924 59.8876 190.237 77.4736L194.002 76.1222C187.557 58.1689 178.52 41.2554 167.178 25.9191L163.962 28.2976Z" fill="#D94426"/>
</svg>
